HIERARCHY
ROOT Hips
{
	OFFSET -3.958830 18.904000 13.208200
	CHANNELS 6 Xposition Yposition Zposition Zrotation Yrotation Xrotation 
	JOINT LHipJoint
	{
		OFFSET 0.000000 0.000000 0.000000
		CHANNELS 3 Zrotation Yrotation Xrotation
		JOINT LeftUpLeg
		{
			OFFSET 1.800000 -1.400000 0.085000
			CHANNELS 3 Zrotation Yrotation Xrotation
			JOINT LeftLeg
			{
				OFFSET 2.215000 -6.000000 0.000000
				CHANNELS 3 Zrotation Yrotation Xrotation
				JOINT LeftFoot
				{
					OFFSET 2.500000 -6.900000 0.000000
					CHANNELS 3 Zrotation Yrotation Xrotation
					JOINT LeftToeBase
					{
						OFFSET 0.200000 -0.500000 1.950000
						CHANNELS 3 Zrotation Yrotation Xrotation
						End Site
						{
							OFFSET 0.000000 0.000000 0.000000
						}
					}
				}
			}
		}
	}
	JOINT RHipJoint
	{
		OFFSET 0.000000 0.000000 0.000000
		CHANNELS 3 Zrotation Yrotation Xrotation
		JOINT RightUpLeg
		{
			OFFSET -1.800000 -1.400000 0.085000
			CHANNELS 3 Zrotation Yrotation Xrotation
			JOINT RightLeg
			{
				OFFSET -2.215000 -6.000000 0.000000
				CHANNELS 3 Zrotation Yrotation Xrotation
				JOINT RightFoot
				{
					OFFSET -2.500000 -6.900000 0.000000
					CHANNELS 3 Zrotation Yrotation Xrotation
					JOINT RightToeBase
					{
						OFFSET -0.200000 -0.500000 1.950000
						CHANNELS 3 Zrotation Yrotation Xrotation
						End Site
						{
							OFFSET 0.000000 0.000000 0.000000
						}
					}
				}
			}
		}
	}
	JOINT LowerBack
	{
		OFFSET 0.000000 0.000000 0.000000
		CHANNELS 3 Zrotation Yrotation Xrotation
		JOINT Spine
		{
			OFFSET -0.087000 1.940000 -0.288900
			CHANNELS 3 Zrotation Yrotation Xrotation
			JOINT Spine1
			{
				OFFSET 0.000000 1.950000 0.060000
				CHANNELS 3 Zrotation Yrotation Xrotation
				JOINT Neck
				{
					OFFSET 0.000000 0.000000 0.000000
					CHANNELS 3 Zrotation Yrotation Xrotation
					JOINT Neck1
					{
						OFFSET 0.000000 1.600000 0.340000
						CHANNELS 3 Zrotation Yrotation Xrotation
						JOINT Head
						{
							OFFSET 0.000000 1.667000 -0.240000
							CHANNELS 3 Zrotation Yrotation Xrotation
							End Site
							{
								OFFSET 0.000000 0.000000 0.000000
							}
						}
					}
				}
				JOINT LeftShoulder
				{
					OFFSET 0.000000 0.000000 0.000000
					CHANNELS 3 Zrotation Yrotation Xrotation
					JOINT LeftArm
					{
						OFFSET 2.700000 1.550000 -0.730000
						CHANNELS 3 Zrotation Yrotation Xrotation
						JOINT LeftForeArm
						{
							OFFSET 5.450000 0.000000 0.000000
							CHANNELS 3 Zrotation Yrotation Xrotation
							JOINT LeftHand
							{
								OFFSET 3.450000 0.000000 0.000000
								CHANNELS 3 Zrotation Yrotation Xrotation
								JOINT LeftHandIndex1
								{
									OFFSET 0.750000 0.000000 0.000000
									CHANNELS 3 Zrotation Yrotation Xrotation
									End Site
									{
										OFFSET 0.000000 0.000000 0.000000
									}
								}
							}
						}
					}
				}
				JOINT RightShoulder
				{
					OFFSET 0.000000 0.000000 0.000000
					CHANNELS 3 Zrotation Yrotation Xrotation
					JOINT RightArm
					{
						OFFSET -2.700000 1.550000 -0.730000
						CHANNELS 3 Zrotation Yrotation Xrotation
						JOINT RightForeArm
						{
							OFFSET -5.450000 0.000000 0.000000
							CHANNELS 3 Zrotation Yrotation Xrotation
							JOINT RightHand
							{
								OFFSET -3.450000 0.000000 0.000000
								CHANNELS 3 Zrotation Yrotation Xrotation
								JOINT RightHandIndex1
								{
									OFFSET -0.750000 0.000000 0.000000
									CHANNELS 3 Zrotation Yrotation Xrotation
									End Site
									{
										OFFSET 0.000000 0.000000 0.000000
									}
								}
							}
						}
					}
				}
			}
		}
	}
}
MOTION
Frames: 7
Frame Time: 0.016667
-0.053020 16.066340 -1.038080 -4.062702 -1.307265 -0.404682 -15.365352 11.398736 4.933765 17.855252 -5.366017 -27.855141 -28.685435 25.204169 43.481470 1.600642 11.990409 0.449776 0.171790 0.111710 0.038150 18.258268 -8.873582 3.554748 -14.803451 6.870808 -23.538434 32.200605 -22.753598 40.749942 -1.615254 -9.443092 1.070603 -0.001290 0.091090 0.152470 -3.323227 -2.227466 -9.582613 8.950539 -0.563714 18.860051 -3.097965 2.181765 3.962038 2.872407 -3.388277 -16.119643 -9.277623 2.951481 38.966574 0.399600 0.639550 -7.449230 -25.677532 -24.773311 7.697525 -36.269343 -5.644901 -4.506394 -37.258044 -20.525985 2.948457 -3.531469 3.240141 0.312560 -0.025490 0.113700 0.105420 20.540137 29.522541 12.520315 36.883719 3.335060 -7.316118 34.829384 23.393001 2.673885 2.351998 -1.412951 -0.006080 0.123630 0.049110 -0.025950 
-0.052410 16.036250 -1.035400 -4.103480 -1.306455 -0.436357 -15.364600 11.321602 4.972216 18.290964 -5.327751 -28.033773 -29.185519 25.693110 43.735409 1.639720 12.124767 0.409580 0.178020 0.122390 0.040270 18.273788 -8.826527 3.570333 -15.137747 6.903068 -23.711399 32.724101 -23.183054 40.959391 -1.648796 -9.557633 1.031086 0.004120 0.086400 0.157080 -3.349630 -2.187654 -9.605824 9.170005 -0.611563 18.769450 -3.209210 2.167984 4.233602 2.881426 -3.446276 -16.121096 -9.363788 2.854456 38.846578 0.197630 0.580820 -7.530260 -25.463869 -24.877043 7.707973 -36.315880 -5.759524 -4.556966 -37.192179 -20.523578 2.909212 -3.532628 3.246556 0.307410 -0.025870 0.117310 0.105950 20.286614 29.666602 12.552507 37.218653 3.434289 -7.414245 34.388599 23.531146 2.605309 2.351935 -1.416246 0.000970 0.118810 0.046710 -0.023130 
-0.053180 15.987540 -1.028360 -4.013186 -1.232490 -0.469570 -15.376814 11.209770 5.025831 18.843159 -5.309267 -28.316549 -29.901537 26.424095 44.134926 1.694841 12.335183 0.358791 0.182480 0.126290 0.039360 18.283328 -8.745244 3.602883 -15.894277 6.897404 -23.980045 33.732528 -23.961691 41.230961 -1.701350 -9.761364 0.970824 0.011130 0.096960 0.161970 -3.349412 -2.151121 -9.647692 9.082191 -0.554387 18.568326 -3.093094 2.150457 4.707409 2.841845 -3.430647 -16.158116 -9.254852 2.735959 38.605160 0.029300 0.516730 -7.316030 -25.463196 -25.182224 7.757139 -36.296759 -5.841385 -4.628367 -36.890168 -20.393532 2.778994 -3.540756 3.246827 0.300130 -0.015510 0.111560 0.113490 20.366335 29.953334 12.654177 37.275288 3.373545 -7.558331 33.730327 23.673287 2.487259 2.339425 -1.422415 -0.000610 0.121370 0.044450 -0.020300 
-0.052700 15.938820 -1.024440 -3.951516 -1.256073 -0.787581 -15.385677 11.161661 5.060864 19.014068 -5.372102 -28.443907 -30.087310 27.043747 44.983973 1.748726 12.532038 0.306820 0.192790 0.142980 0.046540 18.283464 -8.690638 3.632436 -16.226667 7.031553 -24.157055 34.006093 -24.635674 42.166825 -1.762633 -9.968362 0.912184 0.021030 0.092090 0.154870 -3.338106 -2.165520 -9.696822 9.026749 -0.548547 18.806428 -2.953696 2.170609 5.187610 2.820246 -3.565774 -16.459910 -9.581377 2.798716 38.935529 0.092730 0.412720 -7.543480 -25.720707 -25.784813 7.893237 -36.215008 -5.765861 -4.823453 -36.284732 -20.317088 2.593758 -3.526187 3.230465 0.304190 -0.022700 0.119000 0.116080 20.719205 30.687425 12.953242 37.183539 3.154687 -7.829737 32.685816 23.947263 2.347121 2.325242 -1.410064 -0.000520 0.132700 0.038120 -0.018870 
-0.053000 15.887600 -1.020700 -3.882717 -1.333325 -1.087009 -15.394715 11.085843 5.104595 19.278221 -5.405884 -28.585721 -30.564178 27.804996 45.709311 1.802083 12.760875 0.250609 0.196650 0.148550 0.046770 18.287661 -8.624258 3.668475 -16.644178 7.176314 -24.368107 34.506643 -25.413987 43.028454 -1.825160 -10.197735 0.847950 0.030970 0.101200 0.148680 -3.333092 -2.157135 -9.750187 8.964840 -0.483504 18.904149 -2.762720 2.219711 6.006013 2.764550 -3.709716 -16.851480 -9.895824 2.887924 39.203274 0.225580 0.260460 -7.547190 -25.867537 -26.669336 8.103061 -36.241573 -5.806757 -5.066585 -35.446577 -20.426531 2.399661 -3.520550 3.207982 0.308880 -0.021230 0.116690 0.119170 21.043011 31.691960 13.348143 37.090004 2.965626 -8.161980 31.575793 24.277585 2.172452 2.300158 -1.398560 -0.009960 0.149830 0.039460 -0.018250 
-0.052430 15.841150 -1.015340 -3.778034 -1.399600 -1.528810 -15.395944 11.012020 5.128739 19.496284 -5.411166 -28.503851 -31.056001 28.519691 46.313188 1.840329 12.956919 0.195280 0.209790 0.169500 0.050480 18.296289 -8.578473 3.701910 -17.136161 7.285905 -24.367384 35.146301 -26.190518 43.721536 -1.886320 -10.407884 0.792229 0.053100 0.101610 0.133060 -3.345309 -2.117086 -9.788771 8.946797 -0.409309 18.960119 -2.619975 2.279925 7.397320 2.714258 -3.908932 -17.400761 -10.315421 3.023702 39.564933 0.479110 0.062510 -7.856630 -25.599027 -27.948502 8.429799 -36.589565 -6.048279 -5.474377 -34.289635 -20.984007 2.225577 -3.508631 3.179442 0.314950 -0.025630 0.115560 0.120190 20.958878 33.143443 13.888697 37.267421 2.932401 -8.684089 30.332553 24.985544 1.986915 2.262944 -1.384142 -0.019830 0.173920 0.040400 -0.021530 
-0.050560 15.796490 -1.003900 -3.714449 -1.523337 -1.693429 -15.403102 10.948752 5.171339 19.789220 -5.379078 -28.644102 -31.540466 29.231673 46.822167 1.896783 13.147774 0.154839 0.200530 0.153550 0.043660 18.299622 -8.520925 3.734994 -17.611747 7.381321 -24.579738 35.582567 -26.881207 44.393899 -1.930909 -10.591670 0.746262 0.047580 0.114070 0.128180 -3.341921 -2.112498 -9.841108 8.927061 -0.305623 19.018702 -2.550057 2.403114 7.601975 2.669374 -3.970644 -17.624055 -10.543370 3.039176 39.994642 0.746250 -0.209630 -7.444470 -25.734690 -28.240351 8.505892 -36.530978 -5.911879 -5.587533 -33.884521 -21.167744 2.196772 -3.508552 3.164831 0.315800 -0.022530 0.107940 0.122030 21.228714 33.484334 14.122013 37.131974 2.456736 -9.023179 30.244406 25.580705 2.039677 2.248070 -1.382355 -0.028460 0.184440 0.045740 -0.020250 
